HIERARCHY
ROOT hip
{
  OFFSET 8.37765 71.6584 -14.0385
  CHANNELS 6 Xposition Yposition Zposition Zrotation Xrotation Yrotation
  JOINT abdomen
  {
    OFFSET 0 20.6881 -0.73152
    CHANNELS 3 Zrotation Xrotation Yrotation
    JOINT chest
    {
      OFFSET 0 11.7043 -0.48768
      CHANNELS 3 Zrotation Xrotation Yrotation
      JOINT neck
      {
        OFFSET 0 22.1894 -2.19456
        CHANNELS 3 Zrotation Xrotation Yrotation
        JOINT head
        {
          OFFSET -0.24384 7.07133 1.2192
          CHANNELS 3 Zrotation Xrotation Yrotation
          JOINT leftEye
          {
            OFFSET 4.14528 8.04674 8.04672
            CHANNELS 3 Zrotation Xrotation Yrotation
            End Site
            {
              OFFSET 1 0 0
            }
          }
          JOINT rightEye
          {
            OFFSET -3.6576 8.04674 8.04672
            CHANNELS 3 Zrotation Xrotation Yrotation
            End Site
            {
              OFFSET 1 0 0
            }
          }
        }
      }
      JOINT rCollar
      {
        OFFSET -2.68224 19.2634 -4.8768
        CHANNELS 3 Zrotation Xrotation Yrotation
        JOINT rShldr
        {
          OFFSET -8.77824 -1.95073 1.46304
          CHANNELS 3 Zrotation Xrotation Yrotation
          JOINT rForeArm
          {
            OFFSET -28.1742 -1.7115 0.48768
            CHANNELS 3 Zrotation Xrotation Yrotation
            JOINT rHand
            {
              OFFSET -22.5879 0.773209 7.07136
              CHANNELS 3 Zrotation Xrotation Yrotation
              JOINT rThumb1
              {
                OFFSET -1.2192 -0.487915 3.41376
                CHANNELS 3 Zrotation Xrotation Yrotation
                JOINT rThumb2
                {
                  OFFSET -3.37035 -0.52449 3.41376
                  CHANNELS 3 Zrotation Xrotation Yrotation
                  End Site
                  {
                    OFFSET -1.78271 -1.18214 1.43049
                  }
                }
              }
              JOINT rIndex1
              {
                OFFSET -7.75947 0.938293 5.60832
                CHANNELS 3 Zrotation Xrotation Yrotation
                JOINT rIndex2
                {
                  OFFSET -2.54057 -0.884171 1.56538
                  CHANNELS 3 Zrotation Xrotation Yrotation
                  End Site
                  {
                    OFFSET -1.62519 -0.234802 1.16502
                  }
                }
              }
              JOINT rMid1
              {
                OFFSET -8.24714 1.18213 3.41376
                CHANNELS 3 Zrotation Xrotation Yrotation
                JOINT rMid2
                {
                  OFFSET -3.10165 -0.590103 1.0647
                  CHANNELS 3 Zrotation Xrotation Yrotation
                  End Site
                  {
                    OFFSET -2.48547 -0.328903 0.83742
                  }
                }
              }
              JOINT rRing1
              {
                OFFSET -8.82822 0.546677 1.51678
                CHANNELS 3 Zrotation Xrotation Yrotation
                JOINT rRing2
                {
                  OFFSET -2.60934 -0.819778 -0.0198488
                  CHANNELS 3 Zrotation Xrotation Yrotation
                  End Site
                  {
                    OFFSET -2.33842 -0.294052 0.168128
                  }
                }
              }
              JOINT rPinky1
              {
                OFFSET -8.27202 -0.0477905 -0.4584
                CHANNELS 3 Zrotation Xrotation Yrotation
                JOINT rPinky2
                {
                  OFFSET -1.82734 -0.647385 -0.700984
                  CHANNELS 3 Zrotation Xrotation Yrotation
                  End Site
                  {
                    OFFSET -1.69225 -0.51767 -0.607171
                  }
                }
              }
            }
          }
        }
      }
      JOINT lCollar
      {
        OFFSET 2.68224 19.2634 -4.8768
        CHANNELS 3 Zrotation Xrotation Yrotation
        JOINT lShldr
        {
          OFFSET 8.77824 -1.95073 1.46304
          CHANNELS 3 Zrotation Xrotation Yrotation
          JOINT lForeArm
          {
            OFFSET 28.1742 -1.7115 0.48768
            CHANNELS 3 Zrotation Xrotation Yrotation
            JOINT lHand
            {
              OFFSET 22.5879 0.773209 7.07136
              CHANNELS 3 Zrotation Xrotation Yrotation
              JOINT lThumb1
              {
                OFFSET 1.2192 -0.487915 3.41376
                CHANNELS 3 Zrotation Xrotation Yrotation
                JOINT lThumb2
                {
                  OFFSET 3.37035 -0.52449 3.41376
                  CHANNELS 3 Zrotation Xrotation Yrotation
                  End Site
                  {
                    OFFSET 1.78271 -1.18214 1.43049
                  }
                }
              }
              JOINT lIndex1
              {
                OFFSET 7.75947 0.938293 5.60832
                CHANNELS 3 Zrotation Xrotation Yrotation
                JOINT lIndex2
                {
                  OFFSET 2.54057 -0.884171 1.56538
                  CHANNELS 3 Zrotation Xrotation Yrotation
                  End Site
                  {
                    OFFSET 1.62519 -0.234802 1.16502
                  }
                }
              }
              JOINT lMid1
              {
                OFFSET 8.24714 1.18213 3.41376
                CHANNELS 3 Zrotation Xrotation Yrotation
                JOINT lMid2
                {
                  OFFSET 3.10165 -0.590103 1.0647
                  CHANNELS 3 Zrotation Xrotation Yrotation
                  End Site
                  {
                    OFFSET 2.48547 -0.328903 0.83742
                  }
                }
              }
              JOINT lRing1
              {
                OFFSET 8.82822 0.546677 1.51678
                CHANNELS 3 Zrotation Xrotation Yrotation
                JOINT lRing2
                {
                  OFFSET 2.60934 -0.819778 -0.0198488
                  CHANNELS 3 Zrotation Xrotation Yrotation
                  End Site
                  {
                    OFFSET 2.33842 -0.294052 0.168128
                  }
                }
              }
              JOINT lPinky1
              {
                OFFSET 8.27202 -0.0477905 -0.4584
                CHANNELS 3 Zrotation Xrotation Yrotation
                JOINT lPinky2
                {
                  OFFSET 1.82734 -0.647385 -0.700984
                  CHANNELS 3 Zrotation Xrotation Yrotation
                  End Site
                  {
                    OFFSET 1.69225 -0.51767 -0.607171
                  }
                }
              }
            }
          }
        }
      }
    }
  }
  JOINT rButtock
  {
    OFFSET -8.77824 4.35084 1.2192
    CHANNELS 3 Zrotation Xrotation Yrotation
    JOINT rThigh
    {
      OFFSET 0 -1.70687 -2.19456
      CHANNELS 3 Zrotation Xrotation Yrotation
      JOINT rShin
      {
        OFFSET 0 -36.8199 0.73152
        CHANNELS 3 Zrotation Xrotation Yrotation
        JOINT rFoot
        {
          OFFSET 0.73152 -45.1104 -5.12064
          CHANNELS 3 Zrotation Xrotation Yrotation
          End Site
          {
            OFFSET -1.1221 -3.69964 12.103
          }
        }
      }
    }
  }
  JOINT lButtock
  {
    OFFSET 8.77824 4.35084 1.2192
    CHANNELS 3 Zrotation Xrotation Yrotation
    JOINT lThigh
    {
      OFFSET 0 -1.70687 -2.19456
      CHANNELS 3 Zrotation Xrotation Yrotation
      JOINT lShin
      {
        OFFSET 0 -36.8199 0.73152
        CHANNELS 3 Zrotation Xrotation Yrotation
        JOINT lFoot
        {
          OFFSET -0.73152 -45.1104 -5.12064
          CHANNELS 3 Zrotation Xrotation Yrotation
          End Site
          {
            OFFSET 1.1221 -3.69964 12.103
          }
        }
      }
    }
  }
}
MOTION
Frames:	5
Frame Time:	0.00833333
8.13078 73.6862 -15.8796 -1.19749 0.00337746 0.0224838 1.57506 -0.00270776 0.0428967 0.434171 0.00151657 0.0751882 -9.17534e-015 -7.95139e-016 2.48481e-016 -2.74696e-014 3.18055e-015 8.43282e-016 -0 0 0 -0 0 0 -4.52363e-015 3.3972e-017 2.48481e-016 -9.5883e-014 6.70898e-016 3.57812e-015 -1.67804e-012 5.27773e-013 6.99722e-014 -1.92514e-011 -3.6877e-013 5.725e-013 -4.54028e-011 3.44381e-013 1.41535e-012 -7.84114e-011 5.94764e-013 2.42915e-012 -4.53965e-011 3.46283e-013 1.40581e-012 7.73091 5.47488 0.417314 -4.54014e-011 3.45289e-013 1.41217e-012 2.90554 0.965183 0.102902 -4.53936e-011 3.44891e-013 1.41296e-012 10.2786 0.731801 0.0259123 -4.54066e-011 3.435e-013 1.41853e-012 2.22167 -0.733487 -0.20892 -4.52137e-015 3.49426e-017 4.96962e-017 -9.89858e-014 5.59082e-016 1.59028e-015 -1.68644e-012 -4.77083e-013 9.22361e-014 -1.92394e-011 6.27091e-013 5.78861e-013 -4.53951e-011 3.26557e-013 1.42171e-012 -7.83895e-011 5.66139e-013 2.46334e-012 -4.53996e-011 3.2879e-013 1.42489e-012 -7.73091 5.47488 -0.417314 -4.53959e-011 3.27498e-013 1.42171e-012 -2.90554 0.965183 -0.102902 -4.54069e-011 3.272e-013 1.42409e-012 -10.2786 0.731801 -0.0259123 -4.53955e-011 3.26802e-013 1.41853e-012 -2.22167 -0.733487 0.20892 -2.03217e-016 0 -3.88251e-019 1.70428 -6.60407 -0.159303 0.00259078 6.39977 0.0733979 -0.527421 0.199703 0.0640195 2.03217e-016 0 3.88251e-019 0.691676 -1.9236 0.00558743 0.00918001 -2.07857 0.0757679 0.503331 3.99746 -0.13901 
8.73415 72.1751 -15.2648 -1.1505 -1.69642 1.22727 1.17738 1.27302 -0.544478 1.36857 -0.52491 -0.0541728 -0.71356 -0.878346 -0.512736 0.355135 0.530054 -0.780394 -0 0 0 -0 0 0 2.59788e-016 9.75204e-014 -8.59289e-014 4.69578 -0.821277 12.1221 -12.8784 -9.89088 13.8226 0.0132323 2.55208 0.357387 -4.9457e-010 -4.48654e-010 -1.61895e-010 -8.5677e-010 -7.66406e-010 -2.74563e-010 -4.94563e-010 -4.48655e-010 -1.61902e-010 7.73091 5.47488 0.417314 -4.94569e-010 -4.48653e-010 -1.61897e-010 2.90554 0.965183 0.102902 -4.9456e-010 -4.48655e-010 -1.61896e-010 10.2786 0.731801 0.0259123 -4.94573e-010 -4.48654e-010 -1.61889e-010 2.22167 -0.733487 -0.20892 2.11574e-016 9.75186e-014 -8.61572e-014 -9.45 0.00758093 -13.8989 14.5052 -11.6775 -14.3952 -0.0817314 6.34881 -0.872606 8.10478e-011 -1.25045e-009 7.80291e-010 1.54294e-010 -2.16094e-009 1.34441e-009 8.10444e-011 -1.25044e-009 7.80293e-010 -7.73091 5.47488 -0.417314 8.10478e-011 -1.25044e-009 7.80288e-010 -2.90554 0.965183 -0.102902 8.10396e-011 -1.25045e-009 7.80293e-010 -10.2786 0.731801 -0.0259123 8.10501e-011 -1.25044e-009 7.80287e-010 -2.22167 -0.733487 0.20892 -2.03217e-016 0 -3.88251e-019 -2.9833 -10.8822 -4.7476 0.0286875 22.1738 0.316669 -0.274369 -7.19237 0.208455 2.03217e-016 0 3.88251e-019 3.72876 -7.9726 1.55617 -0.0382505 15.7188 -0.173908 0.154762 -4.64447 -1.04318 
8.746 72.1726 -15.2695 -1.02265 -3.49111 2.50405 0.784877 2.62078 -1.16655 2.35371 -1.0815 -0.19108 -1.48434 -1.80544 -1.05484 0.745902 1.08964 -1.60522 -0 0 0 -0 0 0 5.13642e-015 2.06927e-013 -1.8117e-013 10.0267 -1.56593 24.9445 -21.2846 -18.395 29.6579 -0.00753234 5.25048 0.737675 -9.93561e-010 -9.53503e-010 -3.45401e-010 -1.72147e-009 -1.62893e-009 -5.85856e-010 -9.93553e-010 -9.53506e-010 -3.45405e-010 7.73091 5.47488 0.417314 -9.93559e-010 -9.53501e-010 -3.45401e-010 2.90554 0.965183 0.102902 -9.9355e-010 -9.53505e-010 -3.454e-010 10.2786 0.731801 0.0259123 -9.93563e-010 -9.53501e-010 -3.45392e-010 2.22167 -0.733487 -0.20892 5.03302e-015 2.06922e-013 -1.81431e-013 -19.4363 0.0144537 -28.5913 23.3474 -21.5068 -31.3914 0.0471916 13.0555 -1.83142 2.26978e-010 -2.64904e-009 1.64803e-009 4.22259e-010 -4.57775e-009 2.83936e-009 2.26975e-010 -2.64904e-009 1.64803e-009 -7.73091 5.47488 -0.417314 2.26978e-010 -2.64904e-009 1.64802e-009 -2.90554 0.965183 -0.102902 2.26973e-010 -2.64904e-009 1.64803e-009 -10.2786 0.731801 -0.0259123 2.26983e-010 -2.64904e-009 1.64802e-009 -2.22167 -0.733487 0.20892 -2.03217e-016 0 -3.88251e-019 -8.70701 -15.266 -9.77081 -0.130274 38.8478 0.675566 0.0351894 -15.0067 0.370474 2.03217e-016 0 3.88251e-019 7.30546 -14.3505 3.26676 0.109663 34.5323 -0.515201 -0.518199 -13.7736 -2.05097 
8.73994 72.173 -15.2692 -0.841495 -5.08691 3.64962 0.460615 3.82294 -1.72266 3.23025 -1.57774 -0.313007 -2.18788 -2.63419 -1.53965 1.10872 1.58898 -2.34198 -0 0 0 -0 0 0 9.82663e-015 2.92493e-013 -2.58284e-013 15.0529 -2.02909 36.3889 -24.7984 -22.6079 45.1029 -0.0565415 7.65505 1.08073 -1.3929e-009 -1.34665e-009 -4.88517e-010 -2.41349e-009 -2.30041e-009 -8.28547e-010 -1.3929e-009 -1.34666e-009 -4.88519e-010 7.73091 5.47488 0.417314 -1.3929e-009 -1.34665e-009 -4.88516e-010 2.90554 0.965183 0.102902 -1.39289e-009 -1.34665e-009 -4.88515e-010 10.2786 0.731801 0.0259123 -1.39291e-009 -1.34665e-009 -4.88506e-010 2.22167 -0.733487 -0.20892 9.67747e-015 2.92486e-013 -2.58571e-013 -28.34 0.0174937 -41.6968 26.2791 -25.8707 -48.382 0.363249 19.0282 -2.75226 3.33934e-010 -3.75199e-009 2.33803e-009 6.1966e-010 -6.48396e-009 4.02831e-009 3.33933e-010 -3.75199e-009 2.33803e-009 -7.73091 5.47488 -0.417314 3.33935e-010 -3.75198e-009 2.33802e-009 -2.90554 0.965183 -0.102902 3.33933e-010 -3.75199e-009 2.33803e-009 -10.2786 0.731801 -0.0259123 3.33941e-010 -3.75199e-009 2.33802e-009 -2.22167 -0.733487 0.20892 -2.03217e-016 0 -3.88251e-019 -14.4967 -18.973 -14.4716 -0.576668 53.7163 1.24015 0.3517 -21.9758 0.530987 2.03217e-016 0 3.88251e-019 10.8393 -20.0115 4.90926 0.547254 51.309 -1.04567 -1.41315 -21.9023 -3.06322 
8.7401 72.1724 -15.2703 -0.678951 -6.1941 4.45499 0.251425 4.66262 -2.11059 3.84035 -1.92315 -0.397372 -2.69016 -3.21787 -1.87986 1.3712 1.93885 -2.85785 -0 0 0 -0 0 0 1.40508e-014 3.18457e-013 -2.90077e-013 18.6715 -2.20176 44.3666 -25.8245 -22.9926 56.0502 -0.107879 9.32622 1.32253 -1.54313e-009 -1.46055e-009 -5.3066e-010 -2.67377e-009 -2.49427e-009 -8.99732e-010 -1.54312e-009 -1.46055e-009 -5.3066e-010 7.73091 5.47488 0.417314 -1.54313e-009 -1.46054e-009 -5.30656e-010 2.90554 0.965183 0.102902 -1.54312e-009 -1.46055e-009 -5.30656e-010 10.2786 0.731801 0.0259123 -1.54313e-009 -1.46054e-009 -5.30647e-010 2.22167 -0.733487 -0.20892 1.38795e-014 3.18449e-013 -2.90375e-013 -34.5446 0.0165387 -50.8347 26.781 -25.6265 -60.2723 0.707983 23.1833 -3.45058 3.43455e-010 -4.11582e-009 2.58369e-009 6.40651e-010 -7.11366e-009 4.45227e-009 3.43455e-010 -4.11582e-009 2.58369e-009 -7.73091 5.47488 -0.417314 3.43458e-010 -4.11581e-009 2.58368e-009 -2.90554 0.965183 -0.102902 3.43456e-010 -4.11582e-009 2.58369e-009 -10.2786 0.731801 -0.0259123 3.43465e-010 -4.11581e-009 2.58368e-009 -2.22167 -0.733487 0.20892 -2.03217e-016 0 -3.88251e-019 -18.921 -21.4005 -17.903 -1.29465 64.0748 2.01019 0.598077 -26.8323 0.656512 2.03217e-016 0 3.88251e-019 13.5159 -23.9357 6.14999 1.26712 62.9972 -1.7917 -2.23216 -27.5548 -3.87653 
